<?xml version="1.0" encoding="utf-8"?><svg xmlns="http://www.w3.org/2000/svg" xmlns:xlink="http://www.w3.org/1999/xlink" width="1366" height="636" preserveAspectRatio="xMidYMid" viewBox="0 0 1366 636" style="z-index:1;display:block;background-color:rgb(0, 124, 197);animation-play-state:paused" ><g transform="translate(683,318) scale(1,1) translate(-683,-318)" style="animation-play-state:paused" ><defs style="animation-play-state:paused" ><filter id="blur-2dy8p5sorrf-1" x="-1" y="-1" width="3" height="3" style="animation-play-state:paused" ><feGaussianBlur stdDeviation="3" style="animation-play-state:paused" ></feGaussianBlur></filter>
<filter id="blur-2dy8p5sorrf-2" x="-1" y="-1" width="3" height="3" style="animation-play-state:paused" ><feGaussianBlur stdDeviation="1.5" style="animation-play-state:paused" ></feGaussianBlur></filter>
<filter id="blur-2dy8p5sorrf-3" x="-1" y="-1" width="3" height="3" style="animation-play-state:paused" ><feGaussianBlur stdDeviation="1" style="animation-play-state:paused" ></feGaussianBlur></filter></defs>
<circle cx="801.1962313877386" cy="0" transform="matrix(1,0,0,1,0,2.5185930728912354)" r="8.180109522242706" fill="#aabbcc" opacity="0.63" style="opacity:0.63;animation-play-state:paused" ></circle>
<circle cx="324.701650561199" cy="0" transform="matrix(1,0,0,1,0,329.5430603027344)" r="15.149420235012512" fill="#bbddff" opacity="0.7200000000000001" style="opacity:0.72;animation-play-state:paused" ></circle>
<circle cx="96.4204237909193" cy="0" transform="matrix(1,0,0,1,0,444.3109130859375)" r="14.983319479338123" fill="#ddeeff" opacity="0.7200000000000001" style="opacity:0.72;animation-play-state:paused" ></circle>
<circle cx="333.22065558371924" cy="0" transform="matrix(1,0,0,1,0,166.35116577148438)" r="7.986330456345838" fill="#aabbcc" opacity="0.36000000000000004" style="opacity:0.36;animation-play-state:paused" ></circle>
<circle cx="989.9260991934137" cy="0" transform="matrix(1,0,0,1,0,568.8141479492188)" r="13.847157130296514" fill="#aabbcc" opacity="0.7200000000000001" style="opacity:0.72;animation-play-state:paused" ></circle>
<circle cx="1347.457456637164" cy="0" transform="matrix(1,0,0,1,0,567.16650390625)" r="8.990194065298686" fill="#bbddff" opacity="0.63" style="opacity:0.63;animation-play-state:paused" ></circle>
<circle cx="329.15423652054926" cy="0" transform="matrix(1,0,0,1,0,35.72190856933594)" r="15.383202314249983" fill="#bbddff" opacity="0.7200000000000001" style="opacity:0.72;animation-play-state:paused" ></circle>
<circle cx="1042.4233683281993" cy="0" transform="matrix(1,0,0,1,0,228.94712829589844)" r="9.641170084083" fill="#bbddff" opacity="0.63" style="opacity:0.63;animation-play-state:paused" ></circle>
<circle cx="183.80461682169266" cy="0" transform="matrix(1,0,0,1,0,319.64501953125)" r="4.55116018025245" fill="#aabbcc" opacity="0.36000000000000004" style="opacity:0.36;animation-play-state:paused" ></circle>
<circle cx="788.2808178258903" cy="0" transform="matrix(1,0,0,1,0,488.92962646484375)" r="13.17926564815879" fill="#ddeeff" opacity="0.7200000000000001" style="opacity:0.72;animation-play-state:paused" ></circle>
<circle cx="533.0712397978316" cy="0" transform="matrix(1,0,0,1,0,603.385986328125)" r="4.397166243844428" fill="#aabbcc" opacity="0.36000000000000004" style="opacity:0.36;animation-play-state:paused" ></circle>
<circle cx="158.01085225356618" cy="0" transform="matrix(1,0,0,1,0,341.53887939453125)" r="5.336332556780092" fill="#bbddff" opacity="0.36000000000000004" style="opacity:0.36;animation-play-state:paused" ></circle>
<circle cx="1288.3079119519582" cy="0" transform="matrix(1,0,0,1,0,247.05606079101562)" r="13.91808604389692" fill="#aabbcc" opacity="0.7200000000000001" style="opacity:0.72;animation-play-state:paused" ></circle>
<circle cx="593.7793886204498" cy="0" transform="matrix(1,0,0,1,0,381.1910400390625)" r="13.467015740026682" fill="#aabbcc" opacity="0.7200000000000001" style="opacity:0.72;animation-play-state:paused" ></circle>
<circle cx="697.8430378695379" cy="0" transform="matrix(1,0,0,1,0,198.74862670898438)" r="8.00159600842672" fill="#ddeeff" opacity="0.63" style="opacity:0.63;animation-play-state:paused" ></circle></g></svg>